<svg width="12" height="11" viewBox="0 0 12 11" fill="none" xmlns="http://www.w3.org/2000/svg">
    <path fill-rule="evenodd" clip-rule="evenodd" d="M8.51196 10.8805C7.74331 10.8522 5.56494 10.5511 3.28354 8.27027C1.00268 5.98888 0.702163 3.81104 0.673339 3.04185C0.630636 1.86966 1.52846 0.731102 2.5656 0.286459C2.6905 0.232529 2.82727 0.211996 2.96249 0.226876C3.09771 0.241755 3.22674 0.291535 3.33692 0.371331C4.19098 0.993724 4.78028 1.93532 5.2863 2.67568C5.39764 2.83834 5.44525 3.03628 5.42005 3.23177C5.39485 3.42727 5.2986 3.60667 5.14966 3.73577L4.10824 4.50923C4.05793 4.54556 4.02251 4.59892 4.00857 4.65939C3.99463 4.71987 4.00311 4.78335 4.03244 4.83804C4.26838 5.26667 4.68793 5.90507 5.16834 6.38548C5.64874 6.86589 6.31758 7.3132 6.7761 7.57582C6.83359 7.60809 6.90126 7.61711 6.96519 7.60103C7.02913 7.58495 7.08448 7.54498 7.11985 7.48935L7.79776 6.45754C7.92239 6.29199 8.10625 6.18108 8.31082 6.14804C8.51539 6.11501 8.72482 6.16241 8.89522 6.28032C9.64626 6.80023 10.5227 7.37939 11.1643 8.20088C11.2506 8.31186 11.3055 8.44397 11.3232 8.58341C11.341 8.72285 11.3209 8.8645 11.2652 8.99355C10.8184 10.036 9.68789 10.9237 8.51196 10.8805Z" fill="#0E0E0E"/>
</svg>