<svg width="10" height="8" viewBox="0 0 10 8" fill="none" xmlns="http://www.w3.org/2000/svg">
    <path d="M9.81693 1.84961V6.40858C9.81695 6.77716 9.67612 7.13181 9.42327 7.39998C9.17041 7.66815 8.82464 7.82955 8.4567 7.85118L8.37193 7.85358H1.62859C1.26002 7.8536 0.905364 7.71278 0.637198 7.45993C0.369032 7.20707 0.207625 6.8613 0.186002 6.49336L0.183594 6.40858V1.84961L4.73293 4.88266L4.78881 4.91445C4.85465 4.94663 4.92697 4.96335 5.00026 4.96335C5.07355 4.96335 5.14587 4.94663 5.21171 4.91445L5.26759 4.88266L9.81693 1.84961Z" fill="#0E0E0E"/>
    <path d="M8.37243 0.146973C8.89263 0.146973 9.34877 0.421523 9.60309 0.834311L5.00076 3.90253L0.398438 0.834311C0.519236 0.638188 0.685169 0.473784 0.882403 0.354807C1.07964 0.23583 1.30245 0.165727 1.53228 0.150344L1.6291 0.146973H8.37243Z" fill="#0E0E0E"/>
</svg>