<svg xmlns="http://www.w3.org/2000/svg" width="171" height="176" viewBox="0 0 171 176" fill="none">
    <path d="M168.622 96.0643C170.231 98.5557 171 101.346 171 104.107C171 109.104 168.48 114.001 163.882 116.806C159.426 119.525 156.778 124.351 156.778 129.476C156.778 130.088 156.821 130.7 156.892 131.326C156.978 131.953 157.006 132.579 157.006 133.191C157.006 140.708 151.312 147.185 143.624 147.954C140.72 148.238 138.03 149.377 135.837 151.128C133.645 152.879 131.951 155.242 131.026 158.019C128.933 164.24 123.139 168.14 116.947 168.14C115.253 168.14 113.53 167.856 111.85 167.243C111.025 166.944 110.185 166.717 109.331 166.574C108.476 166.418 107.622 166.347 106.768 166.347C102.839 166.347 98.9813 167.913 96.1342 170.831C93.2302 173.82 89.358 175.315 85.5 175.315C81.6424 175.315 77.77 173.82 74.866 170.831C72.0188 167.913 68.1608 166.347 64.2317 166.347C62.5234 166.347 60.8011 166.646 59.1495 167.243C57.4694 167.856 55.747 168.14 54.0531 168.14C47.8602 168.14 42.0663 164.239 39.9739 158.019C39.0485 155.242 37.3546 152.879 35.1622 151.128C32.9699 149.377 30.2793 148.238 27.3753 147.954C19.6879 147.185 13.9936 140.708 13.9936 133.191C13.9936 132.579 14.0221 131.953 14.1074 131.326C14.1787 130.7 14.2215 130.088 14.2215 129.476C14.2215 124.351 11.5735 119.525 7.11803 116.806C2.51985 114.001 0 109.104 0 104.107C0 101.346 0.769019 98.5555 2.37736 96.0643C3.97184 93.6016 4.75476 90.8114 4.75476 87.9927C4.75476 85.2025 3.97184 82.3839 2.37736 79.9355C0.769019 77.4441 0 74.6539 0 71.8923C0 66.8956 2.51985 62.0128 7.11803 59.2082C11.5737 56.489 14.2215 51.6489 14.2215 46.5241C14.2215 45.9121 14.1789 45.2999 14.1074 44.6736C14.0221 44.047 13.9936 43.4207 13.9936 42.8087C13.9936 35.2922 19.6879 28.8148 27.3753 28.046C30.2793 27.747 32.9699 26.6225 35.1622 24.8714C37.3546 23.1345 39.0485 20.7717 39.9739 17.9956C42.0663 11.7745 47.8745 7.85973 54.0672 7.85973C55.7614 7.85973 57.4694 8.14444 59.1495 8.75642C60.8008 9.36839 62.5232 9.65334 64.2317 9.65334C68.1608 9.65334 72.0188 8.08731 74.866 5.16896C77.7697 2.17937 81.6421 0.68457 85.5 0.68457C89.358 0.68457 93.2302 2.17937 96.1342 5.16896C100.22 9.35429 106.37 10.7637 111.85 8.75642C113.531 8.14444 115.239 7.85973 116.933 7.85973C123.125 7.85973 128.934 11.7745 131.026 17.9956C131.952 20.7717 133.645 23.1345 135.838 24.8714C138.03 26.6222 140.721 27.747 143.625 28.046C151.312 28.8148 157.007 35.2922 157.007 42.8087C157.007 43.4207 156.978 44.047 156.892 44.6736C156.821 45.2999 156.778 45.9121 156.778 46.5241C156.778 51.6491 159.426 56.489 163.882 59.2082C168.48 62.0125 171 66.8954 171 71.8923C171 74.6539 170.231 77.4443 168.623 79.9355C167.028 82.3839 166.245 85.2028 166.245 87.9927C166.245 89.5444 166.487 91.0961 166.972 92.5909C167.356 93.8008 167.911 94.9683 168.622 96.0643Z" fill="#B4D31F"/>
    <path d="M171 104.107C171 109.104 168.48 114.001 163.882 116.806C159.426 119.525 156.778 124.351 156.778 129.476C156.778 130.088 156.821 130.7 156.892 131.326C156.978 131.952 157.006 132.579 157.006 133.191C157.006 140.707 151.312 147.185 143.624 147.954C140.72 148.238 138.03 149.377 135.837 151.128C133.645 152.879 131.951 155.242 131.026 158.018C128.933 164.24 123.139 168.14 116.946 168.14C115.253 168.14 113.53 167.855 111.85 167.243C111.024 166.944 110.184 166.716 109.33 166.574L39.4186 96.6764C35.8168 93.0605 35.8168 87.1953 39.4186 83.5938C39.6462 83.3659 39.8743 83.1525 40.1162 82.9531C43.7464 79.9919 49.1132 80.1913 52.5156 83.5938L70.1966 101.275L116.378 55.0937C116.605 54.8802 116.833 54.6667 117.075 54.4674C120.705 51.4919 126.072 51.7056 129.474 55.0937L166.972 92.5907C167.356 93.8008 167.911 94.9681 168.623 96.0642C170.231 98.5553 171 101.346 171 104.107Z" fill="#B0CD26"/>
    <path d="M129.468 55.0967C125.854 51.4834 119.996 51.4834 116.382 55.0967L70.2003 101.279L52.5095 83.5886C48.8957 79.9756 43.0363 79.9756 39.4233 83.5886C35.8098 87.2024 35.8098 93.0608 39.4233 96.6746L63.6572 120.908C65.4642 122.715 67.832 123.618 70.2003 123.618C72.5684 123.618 74.9364 122.715 76.7432 120.908L129.468 68.1829C133.082 64.5689 133.082 58.7107 129.468 55.0967Z" fill="#0E0E0E"/>
</svg>