<svg width="48" height="48" viewBox="0 0 48 48" fill="none" xmlns="http://www.w3.org/2000/svg">
<path d="M48 24C48 37.2548 37.2548 48 24 48C10.7452 48 0 37.2548 0 24C0 10.7452 10.7452 0 24 0C37.2548 0 48 10.7452 48 24Z" fill="#0E0E0E"/>
<path d="M22.8017 14.5742C22.9296 14.7787 23.0159 15.0065 23.0557 15.2444C23.0956 15.4823 23.0881 15.7257 23.0339 15.9607C22.9797 16.1957 22.8797 16.4178 22.7396 16.6141C22.5996 16.8105 22.4222 16.9774 22.2177 17.1052C19.9822 18.4977 18.2063 20.5176 17.1116 22.913C18.2171 22.8205 19.3247 23.0639 20.2897 23.6113C21.2546 24.1587 22.0318 24.9846 22.5196 25.9809C23.0074 26.9773 23.1831 28.0977 23.0238 29.1956C22.8644 30.2934 22.3774 31.3176 21.6264 32.1341C20.8754 32.9507 19.8955 33.5215 18.8148 33.7719C17.734 34.0224 16.6029 33.9408 15.5693 33.5379C14.5357 33.1349 13.6478 32.4293 13.0218 31.5135C12.3957 30.5976 12.0607 29.5142 12.0605 28.4048V28.3552C12.0625 28.213 12.0687 28.0709 12.0789 27.9291C12.0954 27.6536 12.1285 27.2679 12.1928 26.794C12.3214 25.8517 12.573 24.5532 13.0818 23.0948C14.0957 20.1744 16.1491 16.5652 20.2708 13.9901C20.4753 13.8623 20.703 13.776 20.9409 13.7362C21.1788 13.6963 21.4222 13.7037 21.6572 13.758C21.8923 13.8122 22.1143 13.9122 22.3107 14.0523C22.507 14.1923 22.6739 14.3697 22.8017 14.5742ZM35.6589 14.5742C35.7867 14.7787 35.873 15.0065 35.9129 15.2444C35.9527 15.4823 35.9453 15.7257 35.891 15.9607C35.8368 16.1957 35.7368 16.4178 35.5968 16.6141C35.4567 16.8105 35.2793 16.9774 35.0748 17.1052C32.8393 18.4977 31.0634 20.5176 29.9687 22.913C31.0742 22.8205 32.1819 23.0639 33.1468 23.6113C34.1117 24.1587 34.8889 24.9846 35.3767 25.9809C35.8646 26.9773 36.0403 28.0977 35.8809 29.1956C35.7216 30.2934 35.2345 31.3176 34.4835 32.1341C33.7326 32.9507 32.7526 33.5215 31.6719 33.7719C30.5911 34.0224 29.46 33.9408 28.4264 33.5379C27.3928 33.1349 26.5049 32.4293 25.8789 31.5135C25.2528 30.5976 24.9178 29.5142 24.9177 28.4048V28.3552C24.9197 28.213 24.9258 28.0709 24.936 27.9291C24.9526 27.6536 24.9856 27.2679 25.0499 26.794C25.1785 25.8517 25.4301 24.5532 25.9389 23.0948C26.9528 20.1744 29.0062 16.5652 33.1279 13.9901C33.3324 13.8623 33.5601 13.776 33.798 13.7362C34.0359 13.6963 34.2793 13.7037 34.5143 13.758C34.7494 13.8122 34.9714 13.9122 35.1678 14.0523C35.3642 14.1923 35.5311 14.3697 35.6589 14.5742Z" fill="#B4D31F"/>
</svg>
