<svg width="144" height="144" viewBox="0 0 144 144" fill="none" xmlns="http://www.w3.org/2000/svg">
<g clip-path="url(#clip0_659_2120)">
<rect width="144" height="144" rx="18" fill="#0E0E0E"/>
<path fill-rule="evenodd" clip-rule="evenodd" d="M7.2002 38.1382V41.4764H32.1332H57.0662V53.4691V65.4619H71.0138H84.9615V53.4691V41.4764H109.894H134.827V38.1382V34.8H71.0138H7.2002V38.1382ZM96.1937 42.9638C91.3157 43.4333 88.7582 44.7407 87.7996 47.2549C87.4592 48.1478 87.4106 49.2712 87.4763 54.7389L87.5535 61.1722L88.227 62.1907C89.0969 63.5067 90.5672 64.3533 93.0938 64.9933C94.8865 65.4473 95.6634 65.4955 99.7322 65.404C103.586 65.3175 104.603 65.2139 105.947 64.7715C107.813 64.157 108.965 63.3734 109.868 62.1024L110.512 61.1967L110.585 54.7419C110.648 49.2828 110.598 48.1266 110.262 47.2458C109.232 44.5438 106.192 43.187 100.514 42.8945C99.2239 42.828 97.2799 42.8592 96.1937 42.9638ZM113.104 54.211V65.2146H117.794H122.484V60.7973V56.38L126.126 56.246C129.984 56.1041 131.665 55.748 133.096 54.7695C134.502 53.8086 134.827 52.8623 134.827 49.7385C134.827 47.2886 134.766 46.8989 134.266 46.1553C132.61 43.6937 130.341 43.2276 119.954 43.2155L113.104 43.2073V54.211ZM97.6929 46.9995L97.0577 47.6357V54.211V60.7862L97.6637 61.393C98.6099 62.341 100.556 62.0525 100.86 60.919C100.937 60.6297 101.002 57.5397 101.004 54.0529C101.008 46.9275 100.975 46.7873 99.2357 46.5087C98.4796 46.3872 98.2224 46.4693 97.6929 46.9995ZM122.67 47.0579C122.568 47.1615 122.484 48.4641 122.484 49.9529V52.6596L124.239 52.5602C126.451 52.435 126.681 52.1715 126.681 49.76C126.681 47.4013 126.433 47.0945 124.427 46.9683C123.562 46.9139 122.771 46.9542 122.67 47.0579ZM56.7472 68.5837C56.6576 68.6734 56.5848 72.9315 56.585 78.0463L56.5858 87.3455L47.7538 87.4973C42.8963 87.5809 38.1721 87.6645 37.2556 87.6828L35.5892 87.7164V90.6837V93.651L44.9082 93.6557C50.0336 93.6581 56.4754 93.5248 59.2232 93.3597L64.2192 93.0592L64.2839 84.0207L64.3486 74.9819L66.1956 84.0766L68.0426 93.171L70.8697 93.102L73.6967 93.0328L75.4608 84.3782C76.4312 79.6182 77.2905 75.5568 77.3707 75.3528C77.451 75.1488 77.5255 79.0713 77.5361 84.0691L77.5556 93.1564H81.2586H84.9615V80.7883V68.4202L78.9948 68.4865L73.028 68.5528L72.0378 75.5382C71.4935 79.3804 70.9847 82.5234 70.9074 82.5232C70.8302 82.5227 70.2671 79.3794 69.6561 75.5377L68.5452 68.5528L62.7277 68.4865C59.5281 68.4502 56.8371 68.4939 56.7472 68.5837ZM56.984 97.2777C56.8934 97.3682 56.8193 101.708 56.8193 106.921V116.4H70.767H84.7146V106.756V97.1128H70.9316C63.3508 97.1128 57.0743 97.187 56.984 97.2777Z" fill="white"/>
</g>
<defs>
<clipPath id="clip0_659_2120">
<rect width="144" height="144" rx="18" fill="white"/>
</clipPath>
</defs>
</svg>
