<svg width="120" height="120" viewBox="0 0 120 120" fill="none" xmlns="http://www.w3.org/2000/svg">
<g clip-path="url(#clip0_659_2120)">
<rect width="120" height="120" rx="15" fill="#0E0E0E"/>
<path fill-rule="evenodd" clip-rule="evenodd" d="M6 31.7818V34.5636H26.7775H47.555V44.5576V54.5515H59.178H70.8011V44.5576V34.5636H91.5786H112.356V31.7818V29H59.178H6V31.7818ZM80.1612 35.8031C76.0962 36.1944 73.965 37.2838 73.1662 39.3791C72.8825 40.1232 72.842 41.0593 72.8967 45.6157L72.9611 50.9768L73.5223 51.8255C74.2473 52.9222 75.4725 53.6277 77.578 54.161C79.072 54.5394 79.7194 54.5795 83.11 54.5033C86.3219 54.4312 87.169 54.3448 88.2889 53.9762C89.8442 53.4641 90.8036 52.8111 91.5563 51.752L92.0929 50.9972L92.1544 45.6182C92.2062 41.069 92.1646 40.1054 91.8849 39.3714C91.0264 37.1198 88.4934 35.9892 83.7613 35.7454C82.6864 35.69 81.0664 35.7159 80.1612 35.8031ZM94.2529 45.1758V54.3455H98.1615H102.07V50.6644V46.9833L105.104 46.8716C108.32 46.7534 109.721 46.4566 110.913 45.6412C112.085 44.8405 112.356 44.0519 112.356 41.4487C112.356 39.4071 112.305 39.0823 111.888 38.4627C110.508 36.4114 108.617 36.023 99.9616 36.0129L94.2529 36.0061V45.1758ZM81.4105 39.1662L80.8812 39.6964V45.1758V50.6551L81.3863 51.1608C82.1748 51.9508 83.7965 51.7104 84.0497 50.7658C84.1143 50.5247 84.1684 47.9497 84.1698 45.0441C84.1731 39.1062 84.1458 38.9894 82.6963 38.7572C82.0662 38.656 81.8518 38.7244 81.4105 39.1662ZM102.224 39.2148C102.139 39.3012 102.07 40.3867 102.07 41.6274V43.8829L103.533 43.8001C105.376 43.6958 105.567 43.4762 105.567 41.4667C105.567 39.5011 105.361 39.2453 103.689 39.1402C102.969 39.0949 102.309 39.1285 102.224 39.2148ZM47.2892 57.153C47.2145 57.2278 47.1538 60.7762 47.154 65.0386L47.1546 72.7879L39.7947 72.9144C35.7468 72.9841 31.81 73.0537 31.0461 73.0689L29.6575 73.097V75.5697V78.0424L37.4234 78.0463C41.6945 78.0484 47.0627 77.9373 49.3525 77.7997L53.5159 77.5493L53.5697 70.0172L53.6236 62.4848L55.1628 70.0638L56.702 77.6425L59.0579 77.585L61.4138 77.5273L62.8838 70.3151C63.6925 66.3485 64.4086 62.9639 64.4755 62.7939C64.5423 62.6239 64.6044 65.8927 64.6133 70.0576L64.6295 77.6303H67.7153H70.8011V67.3236V57.0168L65.8289 57.072L60.8565 57.1273L60.0313 62.9485C59.5777 66.1503 59.1537 68.7695 59.0894 68.7693C59.025 68.7689 58.5557 66.1494 58.0466 62.9481L57.1208 57.1273L52.2729 57.072C49.6066 57.0418 47.3641 57.0782 47.2892 57.153ZM47.4865 81.0647C47.411 81.1401 47.3493 84.7565 47.3493 89.1011V97H58.9723H70.5954V88.9636V80.9273H59.1095C52.7921 80.9273 47.5618 80.9891 47.4865 81.0647Z" fill="white"/>
</g>
<defs>
<clipPath id="clip0_659_2120">
<rect width="120" height="120" rx="15" fill="white"/>
</clipPath>
</defs>
</svg>
