<svg xmlns="http://www.w3.org/2000/svg" width="70" height="28" viewBox="0 0 70 28" fill="none">
    <path fill-rule="evenodd" clip-rule="evenodd" d="M0 1.1085V2.21701H8.27946H16.5589V6.19941V10.1818H21.1905H25.8221V6.19941V2.21701H34.1015H42.381V1.1085V0H21.1905H0V1.1085ZM29.5519 2.71091C27.9321 2.86684 27.0828 3.30096 26.7645 4.13587C26.6515 4.43238 26.6353 4.80541 26.6571 6.62106L26.6828 8.75735L26.9064 9.09557C27.1953 9.53256 27.6835 9.81371 28.5226 10.0262C29.1179 10.177 29.3758 10.193 30.7269 10.1626C32.0068 10.1339 32.3444 10.0995 32.7907 9.95256C33.4104 9.74852 33.7927 9.48831 34.0927 9.06625L34.3065 8.76548L34.331 6.62204C34.3516 4.80927 34.3351 4.42531 34.2236 4.13283C33.8815 3.2356 32.8721 2.78506 30.9865 2.68792C30.5582 2.66583 29.9126 2.67618 29.5519 2.71091ZM35.1672 6.44575V10.0997H36.7247H38.2822V8.63287V7.16603L39.4914 7.12153C40.7725 7.07439 41.3308 6.95615 41.8061 6.63124C42.2729 6.31215 42.381 5.99791 42.381 4.9606C42.381 4.14704 42.3607 4.01763 42.1946 3.77072C41.6447 2.9533 40.8911 2.79852 37.442 2.7945L35.1672 2.79179V6.44575ZM30.0497 4.05105L29.8388 4.26232V6.44575V8.62917L30.0401 8.83068C30.3543 9.14549 31.0005 9.04967 31.1014 8.67327C31.1271 8.5772 31.1487 7.55113 31.1493 6.39328C31.1506 4.02716 31.1397 3.9806 30.5621 3.88806C30.311 3.84774 30.2256 3.875 30.0497 4.05105ZM38.3437 4.07043C38.3099 4.10483 38.2822 4.5374 38.2822 5.03179V5.93058L38.865 5.89757C39.5996 5.85602 39.6758 5.76849 39.6758 4.96774C39.6758 4.18448 39.5936 4.08258 38.9275 4.0407C38.6402 4.02264 38.3776 4.03602 38.3437 4.07043ZM65.7438 11.0818C64.5878 11.2024 63.8194 11.6132 63.5217 12.2698C63.4132 12.5089 63.3696 12.8013 63.3683 13.2966C63.3651 14.5319 63.7087 14.9404 65.4459 15.7665C66.0163 16.0378 66.6302 16.393 66.8101 16.5558C67.1343 16.8492 67.1374 16.8574 67.1374 17.4455C67.1374 18.0994 67.0148 18.312 66.639 18.3096C66.2453 18.3071 66.1974 18.2081 66.1537 17.3083L66.1127 16.4633H64.7601H63.4075L63.3819 17.1613C63.3387 18.3366 63.6186 18.9076 64.4234 19.2856C64.8579 19.4896 64.9645 19.5029 66.3725 19.5284C68.0091 19.558 68.5916 19.4687 69.239 19.0886C69.8036 18.7572 69.9575 18.4169 69.9943 17.4175C70.0121 16.9358 69.9867 16.4338 69.936 16.2639C69.7318 15.5815 68.9289 14.9564 67.4495 14.3282C67.0577 14.1618 66.5966 13.904 66.4248 13.7554C66.1396 13.5084 66.1127 13.449 66.1127 13.068C66.1127 12.576 66.2692 12.3715 66.6455 12.3715C67.0206 12.3715 67.1621 12.5653 67.2033 13.1354L67.239 13.6305H68.5408H69.8425L69.8407 13.0762C69.8366 11.8036 69.1644 11.2567 67.3921 11.084C66.5353 11.0004 66.5244 11.0004 65.7438 11.0818ZM16.453 11.2185C16.4232 11.2483 16.3991 12.6622 16.3991 14.3607L16.3994 17.4487L13.4666 17.4991C11.8536 17.5269 10.2848 17.5546 9.98043 17.5607L9.4271 17.5718V18.5572V19.5425L12.5217 19.5441C14.2236 19.5449 16.3627 19.5006 17.2752 19.4458L18.9342 19.346L18.9557 16.3446L18.9772 13.3431L19.5905 16.3632L20.2038 19.3831L21.1426 19.3602L22.0814 19.3372L22.6672 16.4633C22.9894 14.8827 23.2748 13.534 23.3014 13.4663C23.3281 13.3985 23.3528 14.7011 23.3563 16.3607L23.3628 19.3783H24.5924H25.8221V15.2713V11.1642L23.8407 11.1862L21.8593 11.2082L21.5305 13.5279C21.3498 14.8037 21.1808 15.8474 21.1552 15.8473C21.1295 15.8472 20.9425 14.8034 20.7396 13.5277L20.3707 11.2082L18.4389 11.1862C17.3764 11.1741 16.4828 11.1887 16.453 11.2185ZM26.5598 15.2708V19.3783H27.9944H29.429V15.3548C29.429 13.1419 29.4382 11.3037 29.4494 11.2698C29.4607 11.2359 28.8151 11.1981 28.0149 11.1858L26.5598 11.1634V15.2708ZM30.1667 15.2706V19.3783H31.3964H32.626V17.1038C32.626 15.6998 32.6552 14.8592 32.7022 14.9073C32.7442 14.9503 33.1363 15.9738 33.5736 17.1818L34.3688 19.3783H35.6287H36.8887V15.2706V11.1629L35.6385 11.1855L34.3884 11.2082L34.3474 13.2029L34.3065 15.1975L33.4867 13.2029L32.667 11.2082L31.4168 11.1855L30.1667 11.1629V15.2706ZM37.6264 15.2715V19.3783H40.1677H42.7089V18.5572V17.7361H41.6432H40.5775V16.8328V15.9296H41.5202H42.4629V15.1496V14.3695H41.5202H40.5775V13.5894V12.8094H41.6052H42.6328L42.6094 12.0088L42.5859 11.2082L40.1062 11.1865L37.6264 11.1648V15.2715ZM43.2827 15.2727V19.3783H44.6747H46.0667L46.0888 17.5103L46.1108 15.6422L46.4583 15.617C46.7398 15.5966 46.8447 15.6309 47.0117 15.7981L47.2175 16.0043V17.6913V19.3783H48.6171H50.0167L49.9902 17.7155C49.967 16.2611 49.9443 16.0208 49.809 15.7971C49.6098 15.4674 49.2565 15.2602 48.693 15.1426L48.2422 15.0485L48.6231 14.9884C49.105 14.9123 49.469 14.6917 49.6771 14.3497C49.8124 14.1276 49.8401 13.9354 49.8404 13.2186C49.8408 12.1316 49.7289 11.8822 49.0941 11.5554C48.4965 11.2477 47.7156 11.1686 45.2706 11.1678L43.2827 11.1672V15.2727ZM51.8522 11.2698C51.8341 11.3263 51.5193 13.1091 51.1524 15.2317C50.7855 17.3543 50.467 19.1556 50.4444 19.2346C50.4065 19.3676 50.5125 19.3783 51.8743 19.3783H53.3451L53.3963 19.1217C53.4245 18.9806 53.4481 18.7497 53.4487 18.6085C53.4513 18.0288 53.4974 17.9824 54.072 17.9824C54.3597 17.9824 54.5969 18.0101 54.5988 18.044C54.6174 18.363 54.7497 19.314 54.7794 19.3439C54.8005 19.3649 55.4614 19.3721 56.2482 19.3597L57.6787 19.3372L56.9179 15.3581C56.4994 13.1696 56.1388 11.3314 56.1165 11.2731C56.0583 11.1213 51.9005 11.1181 51.8522 11.2698ZM58.1748 11.2219C58.1447 11.252 58.1201 13.0995 58.1201 15.3275V19.3783H60.5794H63.0386V18.6009V17.8234L62.0754 17.8003L61.1122 17.7771V14.5337C61.1122 12.4664 61.0825 11.2685 61.0302 11.23C60.9279 11.1547 58.2495 11.147 58.1748 11.2219ZM46.1245 12.5357C46.0396 12.6208 46.0602 14.2717 46.1468 14.3254C46.2861 14.4115 46.9114 14.2655 47.066 14.1107C47.18 13.9965 47.2175 13.8358 47.2175 13.4609C47.2175 13.1869 47.1813 12.8952 47.1372 12.8126C47.011 12.5764 46.2827 12.3772 46.1245 12.5357ZM53.7845 14.39C53.684 15.2143 53.5807 16.0272 53.5551 16.1965L53.5086 16.5044H54.0109C54.3569 16.5044 54.5139 16.4725 54.5155 16.4018C54.5215 16.1201 54.0662 12.8915 54.0204 12.8915C53.9912 12.8915 53.8851 13.5658 53.7845 14.39ZM16.5316 20.7469C16.5015 20.7769 16.4769 22.218 16.4769 23.9492V27.0968H21.1085H25.7401V23.8944V20.6921H21.1632C18.6458 20.6921 16.5616 20.7167 16.5316 20.7469Z" fill="white"/>
</svg>