<svg width="162" height="222" viewBox="0 0 162 222" fill="none" xmlns="http://www.w3.org/2000/svg">
    <style>
        @keyframes scale {
            0% {
                transform: scale(1) rotate(0deg);
            }

            100% {
                transform: scale(1.1) rotate(-15deg);
            }
        }

        @keyframes buble {
            0% {
                transform: scale(1);
            }

            100% {
                transform: scale(1.1);
            }
        }

        path {
            transform-origin: center;
            animation: buble 3s ease-in-out infinite alternate;
            animation-delay: 1s;
        }

        #Group > g {
            transform-origin: center;
            animation: scale 6s ease-in-out infinite alternate;
        }
    </style>

    <g id="Group">
        <g>
            <path d="M60.5797 177.61L60.3284 177.783L55.868 169.47L47.6099 175.301L47.4209 175.118L55.9272 168.91L60.5797 177.61Z" fill="#B4D31F"/>
            <path d="M73.5452 160.271L73.3436 160.376L56.0246 169.341L55.8687 169.106L73.0866 160.177L62.9913 136.458L50.1867 141.681L50.0287 141.311L63.1365 135.982L63.2237 136.15L73.5452 160.271Z" fill="#B4D31F"/>
            <path d="M77.779 119.006L63.0099 136.449L54.8359 123.3L54.8523 123.266L60.2669 109.69L51.6936 102.574L51.7937 102.471L62.856 87.3193L54.3651 82.2846L54.4962 81.9948L63.3448 87.1765L63.2466 87.398L52.1845 102.566L60.6552 109.616L60.6398 109.718L55.1747 123.311L63.1201 135.905L77.5213 118.756L77.779 119.006Z" fill="#B4D31F"/>
            <path d="M89.8654 70.0686L89.1407 70.2828L65.3455 77.5519L63.344 87.3342L62.9872 87.255L65.087 77.2511L65.1878 77.1988L88.31 70.2108L77.2301 68.6014L77.2618 68.4655L78.3848 53.2281L74.92 41.3618L67.5996 29.7911L62.4247 23.487L62.7599 23.2618L67.7991 29.551L75.2398 41.2384L78.7569 53.2055L78.7574 53.2394L77.6832 68.3406L89.8654 70.0686Z" fill="#B4D31F"/>
            <path d="M66.959 29.2049L61.2298 33.2198L61.0049 32.9015L66.7341 28.8866L66.959 29.2049Z" fill="#B4D31F"/>
            <path d="M93.5698 33.1922L93.3849 33.2797L75.1567 41.4631L75.0329 41.1095L93.11 33.013L88.0073 23.6603L88.326 23.4693L93.5698 33.1922Z" fill="#B4D31F"/>
            <path d="M84.0498 100.978L84.0555 101.35L71.227 101.664L60.666 109.697L67.5859 122.763L67.2995 122.852L60.2419 109.635L60.3588 109.532L71.137 101.309L84.0498 100.978Z" fill="#B4D31F"/>
            <path d="M97.3733 172.599L97.0542 172.773L87.4024 155.955L86.4801 136.483L86.4791 136.415L92.1126 121.651L92.436 121.764L86.8191 136.511L87.7229 155.883L97.3733 172.599Z" fill="#B4D31F"/>
            <path d="M107.622 159.376L107.593 159.715L87.1401 157.419L87.1685 157.063L107.622 159.376Z" fill="#B4D31F"/>
            <path d="M106.951 54.2418L106.889 54.5983L94.5972 52.3471L78.6302 53.3516L66.4677 61.8322L66.2097 61.5653L78.5079 53.0995L78.5415 53.082L94.6265 52.0419L106.951 54.2418Z" fill="#B4D31F"/>
            <path d="M47.4977 173.497C48.4118 173.484 49.1853 174.251 49.1994 175.182C49.2482 176.163 48.515 176.936 47.551 177.001C46.6023 176.965 45.8114 176.164 45.797 175.216C45.7826 174.268 46.5334 173.546 47.4977 173.497Z" fill="#B4D31F"/>
            <path d="M60.0955 175.491C61.0433 175.476 61.8327 176.176 61.8648 177.174C61.8792 178.122 61.1286 178.861 60.1474 178.91C59.2503 178.924 58.376 178.209 58.4296 177.277C58.3467 176.279 59.1306 175.506 60.0955 175.491Z" fill="#B4D31F"/>
            <path d="M55.2008 165.795C56.9617 165.802 58.3694 167.084 58.3959 168.828C58.4222 170.554 57.0891 171.963 55.3629 172.006C53.6538 172.066 52.2284 170.733 52.185 168.99C52.1246 167.247 53.5259 165.871 55.2008 165.795Z" fill="#B4D31F"/>
            <path d="M71.997 154.995C74.9242 154.882 77.432 157.248 77.5111 160.227C77.573 163.189 75.1719 165.612 72.2608 165.674C69.2825 165.77 66.8432 163.453 66.798 160.474C66.7363 157.529 69.001 155.04 71.997 154.995Z" fill="#B4D31F"/>
            <path d="M96.7456 166.668C99.708 166.64 102.198 168.973 102.226 171.935C102.305 174.88 99.9885 177.302 97.0105 177.415C94.0986 177.425 91.609 175.144 91.5127 172.148C91.4852 169.22 93.8012 166.764 96.7456 166.668Z" fill="#B4D31F"/>
            <path d="M87.5263 153.633C89.184 153.541 90.5251 154.891 90.618 156.549C90.6091 158.192 89.3607 159.599 87.6681 159.625C86.0265 159.666 84.669 158.35 84.5756 156.658C84.5173 155.05 85.9008 153.624 87.5263 153.633Z" fill="#B4D31F"/>
            <path d="M107.082 156.429C109.063 156.449 110.711 157.948 110.741 159.911C110.805 161.891 109.237 163.473 107.258 163.587C105.329 163.617 103.73 162.033 103.683 160.052C103.637 158.14 105.17 156.525 107.082 156.429Z" fill="#B4D31F"/>
            <path d="M65.5859 73.3829C68.1079 73.3446 70.1356 75.3116 70.1729 77.7659C70.262 80.2871 68.2953 82.3317 65.8756 82.4193C63.2856 82.4417 61.2243 80.4922 61.1698 78.0212C61.0977 75.4997 63.0646 73.472 65.5859 73.3829Z" fill="#B4D31F"/>
            <path d="M88.2832 67.1331C90.2292 67.0697 91.7416 68.5535 91.8222 70.5162C91.8505 72.3781 90.3511 73.9754 88.4894 74.0206C86.5431 74.0671 84.9966 72.5669 84.9345 70.7055C84.9054 68.7928 86.3705 67.1622 88.2832 67.1331Z" fill="#B4D31F"/>
            <path d="M77.0403 65.8028C78.5129 65.7805 79.647 66.8806 79.7538 68.335C79.7915 69.7058 78.6247 70.9087 77.1862 70.9474C75.7646 70.986 74.6297 69.835 74.5917 68.4473C74.5698 67.0086 75.6528 65.8578 77.0403 65.8028Z" fill="#B4D31F"/>
            <path d="M67.0988 56.74C69.3159 56.6894 71.1366 58.4056 71.1362 60.6065C71.2368 62.7721 69.4873 64.6271 67.2702 64.6778C65.0867 64.7109 63.2655 62.9609 63.2164 60.8454C63.1819 58.5772 64.8981 56.7565 67.0988 56.74Z" fill="#B4D31F"/>
            <path d="M78.6495 50.644C80.0372 50.6059 81.137 51.6728 81.175 53.0605C81.1956 54.4146 80.1292 55.5482 78.7585 55.586C77.3536 55.6073 76.3043 54.5228 76.1991 53.17C76.2288 51.7812 77.2621 50.6989 78.6495 50.644Z" fill="#B4D31F"/>
            <path d="M93.4922 48.5753C95.6924 48.5249 97.53 50.2408 97.5973 52.4407C97.6304 54.6242 95.9312 56.4447 93.6808 56.5297C91.4801 56.5462 89.6932 54.8295 89.6601 52.646C89.5592 50.4635 91.3092 48.6423 93.4922 48.5753Z" fill="#B4D31F"/>
            <path d="M106.189 51.1406C107.831 51.0987 109.119 52.3489 109.16 53.9228C109.202 55.5644 107.986 56.8696 106.362 56.9282C104.77 56.9523 103.448 55.6857 103.356 54.1126C103.366 52.521 104.582 51.2158 106.189 51.1406Z" fill="#B4D31F"/>
            <path d="M93.4532 30.0887C95.0443 30.0645 96.4182 31.3473 96.4083 32.9219C96.4666 34.5294 95.2002 35.8692 93.5748 35.8601C91.9334 35.9189 90.6785 34.6682 90.6538 33.0432C90.5961 31.4696 91.8455 30.13 93.4532 30.0887Z" fill="#B4D31F"/>
            <path d="M88.0831 21.4403C89.2844 21.3881 90.2469 22.3385 90.2477 23.5067C90.2829 24.7082 89.3666 25.6872 88.1656 25.7562C87.0146 25.7737 86.0185 24.8408 86.0008 23.6728C85.9481 22.4377 86.9326 21.4916 88.0831 21.4403Z" fill="#B4D31F"/>
            <path d="M74.6024 37.251C76.887 37.1824 78.7251 38.9322 78.8106 41.2165C78.8617 43.4674 77.1125 45.3394 74.7938 45.3916C72.5939 45.4589 70.7547 43.6414 70.6867 41.3907C70.6186 39.14 72.3853 37.3016 74.6024 37.251Z" fill="#B4D31F"/>
            <path d="M67.6029 25.934C69.1601 25.9103 70.4143 27.1102 70.4551 28.6841C70.4949 30.1903 69.3288 31.444 67.7547 31.4679C66.2149 31.5251 64.893 30.3262 64.8866 28.7857C64.846 27.2287 66.0454 25.9407 67.6029 25.934Z" fill="#B4D31F"/>
            <path d="M61.2721 31.6684C62.0505 31.6397 62.6868 32.2903 62.7486 33.0173C62.7438 33.8131 62.1437 34.4318 61.3481 34.4438C60.6034 34.4552 59.9686 33.9061 59.9732 33.0934C59.9619 32.3486 60.5273 31.6797 61.2721 31.6684Z" fill="#B4D31F"/>
            <path d="M61.905 22.1023C62.7169 22.0561 63.3694 22.6557 63.3648 23.4684C63.41 24.2127 62.7765 24.8657 61.9813 24.8947C61.2367 24.9229 60.5666 24.2728 60.5386 23.5452C60.5437 22.7664 61.143 22.097 61.905 22.1023Z" fill="#B4D31F"/>
            <path d="M91.1418 117.47C93.1894 117.405 94.9075 119.055 94.9389 121.12C95.0046 123.218 93.4231 124.986 91.3073 125.018C89.2253 125.05 87.5241 123.399 87.4751 121.284C87.4275 119.27 89.0432 117.519 91.1418 117.47Z" fill="#B4D31F"/>
            <path d="M76.4551 115.38C78.2491 115.336 79.7435 116.753 79.8211 118.512C79.8314 120.307 78.4484 121.767 76.6377 121.828C74.8779 121.889 73.384 120.506 73.3729 118.661C73.3294 116.918 74.7125 115.458 76.4551 115.38Z" fill="#B4D31F"/>
            <path d="M66.7719 120.154C68.2102 120.098 69.4302 121.282 69.5367 122.719C69.5424 124.209 68.3755 125.412 66.9204 125.468C65.3634 125.509 64.1777 124.358 64.1213 122.869C64.1322 121.362 65.2485 120.177 66.7719 120.154Z" fill="#B4D31F"/>
            <path d="M83.5761 98.8319C85.0313 98.7759 86.2677 99.9254 86.3414 101.431C86.3638 102.904 85.2308 104.106 83.691 104.163C82.2184 104.186 80.9989 103.036 80.9252 101.53C80.9539 100.074 82.0527 98.8551 83.5761 98.8319Z" fill="#B4D31F"/>
            <path d="M53.9061 80.0055C55.1074 79.9534 56.1033 80.8694 56.1218 82.0881C56.1567 83.2727 55.2401 84.2347 54.0214 84.2533C52.8535 84.271 51.8751 83.3886 51.8573 82.2206C51.7881 81.0027 52.7043 80.0238 53.9061 80.0055Z" fill="#B4D31F"/>
            <path d="M62.4987 84.0946C64.0388 84.0543 65.327 85.2707 65.3843 86.8105C65.4254 88.4013 64.2419 89.6213 62.6677 89.6452C61.1115 89.7366 59.8396 88.4862 59.7824 86.9464C59.7764 85.4397 60.9751 84.1009 62.4987 84.0946Z" fill="#B4D31F"/>
            <path d="M60.0722 107.008C61.5443 106.952 62.7818 108.169 62.8547 109.624C62.8937 111.079 61.711 112.35 60.1871 112.339C58.7829 112.412 57.5288 111.212 57.5069 109.773C57.4841 108.266 58.6165 107.03 60.0722 107.008Z" fill="#B4D31F"/>
            <path d="M50.139 138.793C51.6457 138.787 52.8642 139.869 52.8871 141.375C52.9441 142.898 51.7777 144.135 50.2874 144.106C48.7979 144.129 47.5956 142.996 47.5393 141.524C47.5003 140.069 48.6322 138.799 50.139 138.793Z" fill="#B4D31F"/>
            <path d="M54.1761 119.152C56.3422 119.085 58.1809 120.869 58.2304 123.018C58.3318 125.235 56.548 127.056 54.347 127.056C52.1481 127.191 50.3264 125.407 50.3438 123.206C50.2595 121.006 51.9593 119.22 54.1761 119.152Z" fill="#B4D31F"/>
            <path d="M62.4597 132.093C64.6078 131.958 66.4283 133.658 66.4958 135.874C66.5467 138.108 64.7964 139.913 62.6306 139.996C60.4299 140.013 58.6426 138.262 58.5758 136.096C58.509 133.93 60.2757 132.092 62.4597 132.093Z" fill="#B4D31F"/>
            <path d="M51.8293 98.4236C53.9786 98.374 55.8329 100.073 55.9002 102.273C55.9162 104.44 54.2003 106.277 52.0509 106.327C49.8166 106.361 48.0131 104.661 47.9287 102.445C47.8957 100.278 49.6291 98.474 51.8293 98.4236Z" fill="#B4D31F"/>
            <path d="M71.0309 97.603C73.0615 97.5383 74.7627 99.1885 74.7941 101.254C74.8932 103.318 73.2611 105.103 71.1966 105.168C69.0975 105.183 67.3963 103.533 67.3136 101.435C67.2994 99.3866 68.8987 97.6693 71.0309 97.603Z" fill="#B4D31F"/>
            <path d="M86.2206 131.994C89.0309 131.985 91.3497 134.168 91.4088 136.944C91.484 139.668 89.3016 142.004 86.4759 142.115C83.7341 142.173 81.381 139.957 81.3222 137.198C81.2115 134.373 83.4618 132.053 86.2206 131.994Z" fill="#B4D31F"/>
        </g>
    </g>
</svg>