<svg xmlns="http://www.w3.org/2000/svg" width="93" height="36" viewBox="0 0 93 36" fill="none">
    <path fill-rule="evenodd" clip-rule="evenodd" d="M0 1.47273V2.94545H10.9998H21.9997V8.23636V13.5273H28.1531H34.3064V8.23636V2.94545H45.3063H56.3061V1.47273V0H28.1531H0V1.47273ZM39.2618 3.60164C37.1098 3.8088 35.9815 4.38556 35.5586 5.4948C35.4084 5.88873 35.3869 6.38433 35.4159 8.79655L35.45 11.6348L35.7471 12.0841C36.1309 12.6647 36.7796 13.0382 37.8943 13.3205C38.6852 13.5208 39.0279 13.5421 40.8229 13.5017C42.5233 13.4636 42.9718 13.4179 43.5647 13.2227C44.3881 12.9516 44.896 12.6059 45.2945 12.0452L45.5786 11.6456L45.6111 8.79786C45.6386 6.38945 45.6166 5.87935 45.4685 5.49076C45.014 4.29873 43.673 3.70015 41.1677 3.57109C40.5987 3.54175 39.741 3.55549 39.2618 3.60164ZM46.7221 8.56364V13.4182H48.7914H50.8607V11.4694V9.52058L52.4671 9.46145C54.1692 9.39884 54.9109 9.24175 55.5424 8.81007C56.1625 8.38615 56.3061 7.96865 56.3061 6.59051C56.3061 5.50964 56.2792 5.33771 56.0585 5.00967C55.3279 3.92367 54.3267 3.71804 49.7444 3.71269L46.7221 3.70909V8.56364ZM39.9232 5.38211L39.643 5.6628V8.56364V11.4645L39.9104 11.7322C40.3278 12.1504 41.1864 12.0231 41.3204 11.5231C41.3546 11.3954 41.3833 10.0322 41.384 8.49393C41.3858 5.35036 41.3713 5.28851 40.6039 5.16556C40.2703 5.112 40.1568 5.14822 39.9232 5.38211ZM50.9424 5.40786C50.8974 5.45356 50.8607 6.02825 50.8607 6.68509V7.8792L51.6349 7.83535C52.6109 7.78015 52.7121 7.66385 52.7121 6.6C52.7121 5.55938 52.6029 5.424 51.7179 5.36836C51.3363 5.34436 50.9873 5.36215 50.9424 5.40786ZM87.3453 14.723C85.8095 14.8832 84.7887 15.4289 84.3931 16.3013C84.249 16.619 84.1911 17.0075 84.1893 17.6655C84.1851 19.3067 84.6415 19.8494 86.9495 20.947C87.7073 21.3073 88.5229 21.7792 88.762 21.9956C89.1927 22.3853 89.1968 22.3963 89.1968 23.1776C89.1968 24.0464 89.034 24.3288 88.5347 24.3256C88.0116 24.3223 87.9479 24.1908 87.8899 22.9953L87.8354 21.8727H86.0384H84.2414L84.2073 22.8C84.1499 24.3614 84.5218 25.12 85.5911 25.6223C86.1683 25.8934 86.31 25.9111 88.1806 25.9449C90.3549 25.9843 91.1288 25.8656 91.989 25.3606C92.7391 24.9203 92.9435 24.4681 92.9925 23.1404C93.0161 22.5004 92.9824 21.8335 92.9149 21.6077C92.6436 20.7011 91.577 19.8707 89.6115 19.036C89.0909 18.815 88.4783 18.4725 88.2501 18.275C87.8712 17.9469 87.8354 17.868 87.8354 17.3618C87.8354 16.7081 88.0433 16.4364 88.5433 16.4364C89.0417 16.4364 89.2297 16.6939 89.2843 17.4513L89.3318 18.1091H91.0613H92.7908L92.7884 17.3727C92.7829 15.6819 91.8899 14.9554 89.5353 14.7259C88.3968 14.6148 88.3825 14.6148 87.3453 14.723ZM21.859 14.9045C21.8194 14.9441 21.7873 16.8227 21.7874 19.0792L21.7878 23.1818L17.8913 23.2488C15.7483 23.2857 13.6641 23.3225 13.2597 23.3306L12.5246 23.3455V24.6545V25.9636L16.6359 25.9657C18.8971 25.9668 21.7391 25.908 22.9513 25.8351L25.1555 25.7026L25.184 21.715L25.2125 17.7273L26.0274 21.7396L26.8422 25.7519L28.0895 25.7215L29.3367 25.6909L30.115 21.8727C30.5431 19.7727 30.9222 17.9809 30.9576 17.8909C30.993 17.8009 31.0259 19.5314 31.0306 21.7364L31.0392 25.7455H32.6728H34.3064V20.2889V14.8324L31.6741 14.8617L29.0417 14.8909L28.6048 17.9727C28.3647 19.6678 28.1402 21.0544 28.1061 21.0543C28.072 21.0541 27.8236 19.6673 27.5541 17.9725L27.064 14.8909L24.4974 14.8617C23.0858 14.8456 21.8986 14.8649 21.859 14.9045ZM35.2866 20.2884V25.7455H37.1926H39.0985V20.4C39.0985 17.46 39.1108 15.0178 39.1257 14.9727C39.1406 14.9277 38.283 14.8775 37.2198 14.8611L35.2866 14.8313V20.2884ZM40.0786 20.2881V25.7455H41.7123H43.3459V22.7236C43.3459 20.8583 43.3847 19.7415 43.4472 19.8055C43.503 19.8625 44.024 21.2223 44.6049 22.8273L45.6613 25.7455H47.3353H49.0092V20.2881V14.8307L47.3483 14.8608L45.6875 14.8909L45.633 17.5409L45.5786 20.191L44.4895 17.5409L43.4004 14.8909L41.7395 14.8608L40.0786 14.8307V20.2881ZM49.9894 20.2893V25.7455H53.3656H56.7418V24.6545V23.5636H55.326H53.9101V22.3636V21.1636H55.1626H56.4151V20.1273V19.0909H55.1626H53.9101V18.0545V17.0182H55.2754H56.6407L56.6096 15.9545L56.5784 14.8909L53.2839 14.862L49.9894 14.8332V20.2893ZM57.5041 20.2909V25.7455H59.3535H61.2029L61.2322 23.2636L61.2615 20.7818L61.7232 20.7483C62.0972 20.7212 62.2366 20.7668 62.4583 20.9889L62.7318 21.2628V23.5042V25.7455H64.5913H66.4507L66.4155 23.5364C66.3847 21.604 66.3546 21.2847 66.1749 20.9876C65.9102 20.5496 65.4408 20.2743 64.6922 20.118L64.0932 19.993L64.5993 19.9131C65.2395 19.812 65.7231 19.519 65.9996 19.0646C66.1793 18.7695 66.2161 18.5141 66.2165 17.5619C66.217 16.1177 66.0683 15.7863 65.2251 15.3521C64.4311 14.9434 63.3935 14.8382 60.1452 14.8372L57.5041 14.8364V20.2909ZM68.8893 14.9727C68.8654 15.0478 68.447 17.4164 67.9595 20.2364C67.4722 23.0564 67.049 25.4496 67.019 25.5545C66.9686 25.7313 67.1095 25.7455 68.9187 25.7455H70.8728L70.9408 25.4045C70.9783 25.217 71.0096 24.9103 71.0104 24.7227C71.0138 23.9525 71.0751 23.8909 71.8385 23.8909C72.2207 23.8909 72.5358 23.9277 72.5384 23.9727C72.5632 24.3965 72.7388 25.66 72.7784 25.6997C72.8064 25.7277 73.6845 25.7372 74.7297 25.7208L76.6303 25.6909L75.6195 20.4044C75.0635 17.4968 74.5844 15.0545 74.5548 14.9771C74.4775 14.7754 68.9536 14.7711 68.8893 14.9727ZM77.2894 14.9091C77.2494 14.9491 77.2167 17.4036 77.2167 20.3637V25.7455H80.484H83.7513V24.7126V23.6796L82.4716 23.6489L81.1919 23.6182V19.3091C81.1919 16.5625 81.1524 14.971 81.083 14.9198C80.947 14.8198 77.3886 14.8096 77.2894 14.9091ZM61.2797 16.6546C61.1669 16.7676 61.1942 18.961 61.3093 19.0323C61.4944 19.1468 62.3251 18.9528 62.5305 18.7471C62.682 18.5953 62.7318 18.3818 62.7318 17.8837C62.7318 17.5198 62.6838 17.1322 62.6252 17.0224C62.4575 16.7086 61.4899 16.444 61.2797 16.6546ZM71.4565 19.1182C71.323 20.2132 71.1858 21.2932 71.1518 21.5182L71.0899 21.9273H71.7573C72.217 21.9273 72.4256 21.8848 72.4277 21.7909C72.4357 21.4167 71.8308 17.1273 71.77 17.1273C71.7312 17.1273 71.5902 18.0231 71.4565 19.1182ZM21.9634 27.5637C21.9235 27.6036 21.8908 29.5181 21.8908 31.8182V36H28.0442H34.1975V31.7455V27.4909H28.1168C24.7723 27.4909 22.0033 27.5236 21.9634 27.5637Z" fill="white"/>
</svg>