<svg width="32" height="32" viewBox="0 0 32 32" fill="none" xmlns="http://www.w3.org/2000/svg">
    <path d="M32 16C32 24.8366 24.8366 32 16 32C7.16344 32 0 24.8366 0 16C0 7.16344 7.16344 0 16 0C24.8366 0 32 7.16344 32 16Z" fill="#0E0E0E"/>
    <path fill-rule="evenodd" clip-rule="evenodd" d="M13.4374 8.03944C13.3947 8.06095 13.3274 8.12612 13.288 8.18426C13.2171 8.28872 13.2162 8.30194 13.2163 9.26219C13.2163 10.3802 13.2203 10.4 13.4668 10.5235C13.5806 10.5805 13.6595 10.5938 13.8837 10.5938H14.1603V14.8469L13.4629 16.057C13.0794 16.7227 12.4375 17.8298 12.0365 18.5175C10.4464 21.2444 10.4965 21.139 10.5011 21.7526C10.5039 22.1116 10.5668 22.3714 10.7318 22.706C10.9714 23.1916 11.3089 23.5223 11.8186 23.7711C12.3221 24.0168 12.1196 24.0061 16.0744 23.9959L19.5886 23.9868L19.8404 23.9167C20.499 23.7336 21.0062 23.3098 21.2897 22.706C21.4476 22.3696 21.5012 22.1267 21.5 21.7526C21.4982 21.2122 21.4163 20.972 20.9726 20.2054C20.8134 19.9303 20.4633 19.3255 20.1945 18.8613C19.9258 18.3972 19.4902 17.6446 19.2264 17.1891C18.9627 16.7335 18.5433 16.0136 18.2945 15.5894L17.8421 14.8181V10.5938H18.1344C18.3756 10.5938 18.4508 10.5815 18.5648 10.5235C18.8132 10.3969 18.8177 10.3752 18.8175 9.28151C18.8174 8.38487 18.8136 8.32157 18.7549 8.2258C18.7205 8.16975 18.6462 8.09599 18.5898 8.06182C18.4897 8.00121 18.4268 7.99971 16.0012 8.00003C14.0756 8.00031 13.4976 8.00918 13.4374 8.03944ZM14.2311 8.89992L14.1288 8.90989V9.71911L17.9208 9.70298L17.9188 9.60921C17.9177 9.55763 17.9141 9.37219 17.9109 9.19708L17.905 8.87873L16.1192 8.88435C15.137 8.88745 14.2873 8.89445 14.2311 8.89992ZM15.0694 15.0204L14.575 15.8919L15.0678 15.9111C15.6728 15.9346 16.0484 16.0089 16.6542 16.2249C17.3474 16.472 17.8743 16.5978 17.8368 16.5073C17.8311 16.4933 17.6332 16.1522 17.3971 15.7493L16.9678 15.0167L16.9767 10.5938L15.0334 10.5938L15.0694 15.0204ZM14.2609 16.8277C14.1518 16.849 14.0437 16.8863 14.0208 16.9105C13.9241 17.0128 11.4974 21.1894 11.4436 21.3463C11.3642 21.5776 11.3829 22.0034 11.4837 22.2627C11.639 22.6616 12.1114 23.0202 12.5768 23.0923C12.7206 23.1146 13.9026 23.1233 16.1585 23.1189L19.5257 23.1123L19.7145 23.0417C20.1124 22.8929 20.4 22.613 20.5536 22.2252C20.6514 21.9783 20.652 21.5284 20.5549 21.2838C20.4993 21.1436 18.921 18.3682 18.4552 17.5915L18.331 17.3843L17.8269 17.3678C17.2716 17.3495 17.1281 17.3189 16.3438 17.0514C15.7433 16.8467 15.3873 16.7821 14.8791 16.7858C14.6482 16.7875 14.3699 16.8063 14.2609 16.8277ZM15.7337 17.5076C15.6077 17.5921 14.95 18.5423 14.6433 19.0828C14.4167 19.4821 14.2065 19.9619 14.1563 20.1946C14.0774 20.5599 14.2017 21.0689 14.4624 21.4478C14.7009 21.7945 15.0424 22.0506 15.461 22.1964C15.6125 22.2492 15.7309 22.2645 16.0012 22.2661C16.3747 22.2682 16.5288 22.2321 16.8717 22.0618C17.5819 21.7091 18.0345 20.8383 17.8609 20.1585C17.7999 19.9195 17.4607 19.2146 17.1871 18.7583C16.9643 18.3866 16.4389 17.6469 16.3177 17.5343C16.1938 17.4192 15.8864 17.4051 15.7337 17.5076ZM15.8149 18.8379C15.713 19.0055 15.5011 19.3818 15.344 19.674C15.0802 20.1648 15.0575 20.2212 15.0466 20.4129C15.0174 20.9236 15.4112 21.3391 15.954 21.3702C16.2647 21.3879 16.4924 21.3063 16.7029 21.1017C16.9056 20.9045 16.9925 20.7127 16.9925 20.462C16.9925 20.2968 16.9727 20.2241 16.8712 20.0162C16.6653 19.5941 16.0551 18.5331 16.0183 18.5331C16.0084 18.5331 15.9168 18.6703 15.8149 18.8379Z" fill="white"/>
</svg>
