<svg xmlns="http://www.w3.org/2000/svg" width="32" height="32" viewBox="0 0 32 32" fill="none">
    <rect width="32" height="32" rx="16" fill="#0E0E0E"/>
    <path fill-rule="evenodd" clip-rule="evenodd" d="M15.7771 8.05192C15.635 8.12703 15.4998 8.28601 14.9505 9.02393C13.9434 10.377 13.464 11.0934 12.8894 12.1043C12.1858 13.3422 11.6811 14.6579 11.5351 15.6351C11.4735 16.0478 11.4749 16.7639 11.5381 17.1636C11.738 18.4273 12.4939 19.5507 13.6872 20.3574L13.9055 20.5051L13.5156 20.4896C13.1666 20.4758 13.0914 20.4619 12.7982 20.3576C12.0212 20.0809 11.6381 20.0085 11.1449 20.0448C10.7452 20.0743 10.5427 20.1152 10.1235 20.2516C9.56277 20.4339 9.37904 20.4653 8.86659 20.4659C8.45896 20.4664 8.39903 20.4735 8.27392 20.5368C8.0205 20.6649 7.92305 20.9889 8.06651 21.2264C8.20445 21.4548 8.24637 21.4667 8.91457 21.4664C9.57191 21.4661 9.66677 21.4509 10.3014 21.2444C10.9902 21.0203 11.6535 21.0115 12.2317 21.2189C12.9722 21.4844 12.9445 21.4791 13.6092 21.4808C14.2823 21.4826 14.349 21.4711 14.9498 21.2503C15.331 21.1101 15.6118 21.0603 16.0171 21.0611C16.3729 21.0618 16.608 21.11 17.1422 21.2918C17.6642 21.4695 17.9598 21.5124 18.5044 21.4892C18.9494 21.4702 19.1929 21.4209 19.6645 21.2543C20.1284 21.0903 20.3716 21.0508 20.811 21.0678C21.1736 21.0819 21.2394 21.0946 21.6415 21.227C22.3209 21.4509 22.4108 21.4661 23.0608 21.4665C23.7172 21.4669 23.7944 21.4446 23.8957 21.2249C23.9254 21.1603 23.9604 21.1028 23.9732 21.0971C23.9861 21.0913 23.9964 21.028 23.9962 20.9563C23.9958 20.8696 23.9866 20.8405 23.9683 20.8693C23.9482 20.9013 23.9356 20.888 23.9204 20.8185C23.8989 20.7202 23.8169 20.6291 23.6847 20.5565C23.6305 20.5268 23.4303 20.5083 23.0296 20.4961C22.5294 20.4808 22.4276 20.4689 22.2654 20.4067C21.547 20.1312 21.2136 20.0598 20.647 20.0602C20.1702 20.0604 19.943 20.097 19.5516 20.2366C18.9681 20.4446 18.852 20.4711 18.4442 20.4892L18.0543 20.5064L18.3974 20.2783C19.0752 19.8277 19.7098 19.0919 20.0501 18.3619C20.5045 17.3872 20.5965 16.1615 20.3026 14.9981C20.0091 13.8362 19.2455 12.2725 18.2162 10.7256C17.5883 9.78196 16.4965 8.31572 16.2547 8.09129C16.1422 7.9869 15.9328 7.96964 15.7771 8.05192ZM15.5408 9.90473C13.8875 12.158 12.8484 14.1298 12.578 15.5273C12.3202 16.8592 12.6538 18.0732 13.5148 18.9369C14.3058 19.7305 15.38 20.1315 16.363 20.0001C17.8793 19.7974 19.0611 18.6766 19.3995 17.1205C19.4896 16.7058 19.4762 16.004 19.3682 15.4836C19.1215 14.295 18.4524 12.8954 17.3103 11.179C16.8219 10.445 16.023 9.34014 15.9775 9.33579C15.9676 9.33486 15.7711 9.59087 15.5408 9.90473ZM15.7408 13.5165C15.5746 13.6095 14.8376 14.4543 14.3835 15.0722C13.8978 15.7331 13.5704 16.3672 13.5194 16.7452C13.4253 17.4431 13.7543 18.3112 14.286 18.7679C14.8248 19.2306 15.3051 19.4144 15.9799 19.416C16.4547 19.4172 16.6402 19.372 17.1198 19.1386C17.4071 18.9987 17.5061 18.9302 17.7165 18.7258C18.0937 18.3594 18.3071 17.9767 18.4311 17.4445C18.5084 17.1124 18.4804 16.6349 18.3674 16.3597C18.1332 15.7899 17.3761 14.7309 16.6129 13.9059C16.4459 13.7253 16.2667 13.5515 16.2147 13.5198C16.0946 13.4463 15.869 13.4448 15.7408 13.5165ZM15.8808 14.7986C15.7055 14.988 15.1723 15.6848 14.9764 15.9807C14.6385 16.4909 14.5397 16.7032 14.5215 16.9577C14.4791 17.5526 14.9074 18.1719 15.5014 18.3745C15.7769 18.4685 16.1628 18.4741 16.4289 18.388C16.8412 18.2547 17.254 17.8469 17.3794 17.4488C17.5229 16.9935 17.4943 16.7836 17.2287 16.3404C16.9218 15.8286 16.0655 14.7126 15.9796 14.7126C15.969 14.7126 15.9246 14.7513 15.8808 14.7986ZM8.00285 20.998C8.00285 21.0754 8.00893 21.1071 8.01638 21.0684C8.02381 21.0297 8.02381 20.9664 8.01638 20.9277C8.00893 20.8889 8.00285 20.9206 8.00285 20.998ZM10.5763 22.6102C10.4608 22.6359 10.2292 22.7047 10.0616 22.763C9.53688 22.9454 9.41242 22.9688 8.85742 22.9895C8.39492 23.0067 8.32093 23.0169 8.23639 23.0745C8.06554 23.1912 8.00983 23.2967 8.01105 23.5012C8.01223 23.7082 8.06701 23.8085 8.24678 23.9328C8.35146 24.0052 8.36204 24.0061 8.94576 23.9905C9.59643 23.9731 9.7037 23.9518 10.4665 23.6887C10.8284 23.5639 10.8389 23.5622 11.2776 23.5627C11.7747 23.5632 11.8661 23.5809 12.4706 23.793C12.9913 23.9756 13.4079 24.0265 13.941 23.9723C14.2758 23.9382 14.3966 23.9077 15.2313 23.6461C15.3999 23.5933 15.5232 23.5822 15.9643 23.5802C16.5319 23.5777 16.5761 23.5856 17.1591 23.7947C17.5648 23.9403 17.8008 23.9783 18.3038 23.9791C18.8569 23.98 19.0198 23.9518 19.6607 23.7444C20.295 23.5391 20.5784 23.502 20.9933 23.5703C21.1641 23.5985 21.5202 23.6914 21.7846 23.7768C22.3486 23.9591 22.6033 24 23.1738 24C23.6199 24 23.7002 23.9803 23.8299 23.8388C23.9572 23.6999 24.0547 23.3433 23.9654 23.3433C23.9483 23.3433 23.9337 23.3257 23.9331 23.3042C23.9316 23.2496 23.811 23.1127 23.7045 23.0446C23.6312 22.9977 23.5582 22.9884 23.2997 22.9929C22.8068 23.0014 22.4862 22.9522 22.0182 22.7963C21.4816 22.6175 21.1561 22.5616 20.6519 22.5616C20.1779 22.5616 19.7667 22.6346 19.3345 22.7955C18.9459 22.9402 18.847 22.963 18.5066 22.9861C18.1104 23.0129 17.8177 22.9668 17.3167 22.7982C16.7962 22.6232 16.448 22.5616 15.9799 22.5616C15.5182 22.5616 15.1906 22.6187 14.6411 22.7953C13.8508 23.0492 13.3334 23.0526 12.6431 22.8083C12.0126 22.5853 12.0167 22.586 11.3789 22.5743C10.9336 22.5661 10.734 22.5751 10.5763 22.6102ZM8.00222 23.484C8.00256 23.5528 8.00896 23.5773 8.01641 23.5384C8.02387 23.4995 8.02359 23.4432 8.01579 23.4133C8.00799 23.3834 8.00188 23.4152 8.00222 23.484Z" fill="white"/>
</svg>