<svg xmlns="http://www.w3.org/2000/svg" width="32" height="32" viewBox="0 0 32 32" fill="none">
    <rect width="32" height="32" rx="16" fill="#0E0E0E"/>
    <path d="M16 16.07V24M16 15.93C16 11.577 19.538 8.043 23.919 8C23.9723 8.37067 23.9993 8.748 24 9.132C24 13.485 20.462 17.018 16.081 17.062C16.0271 16.6864 16.0001 16.3074 16 15.928M16 15.928C16 11.576 12.462 8.042 8.081 8C8.02767 8.37067 8.00067 8.748 8 9.132C8 13.485 11.538 17.018 15.919 17.062C15.9729 16.6864 15.9999 16.3074 16 15.928Z" stroke="white" stroke-width="1.5" stroke-linecap="round" stroke-linejoin="round"/>
</svg>